<svg xmlns="http://www.w3.org/2000/svg" xmlns:xlink="http://www.w3.org/1999/xlink" width="500" zoomAndPan="magnify" viewBox="0 0 375 374.999991" height="500" preserveAspectRatio="xMidYMid meet" version="1.0"><defs><g/><clipPath id="25d8da349b"><path d="M 125.351562 111 L 248 111 L 248 204 L 125.351562 204 Z M 125.351562 111 " clip-rule="nonzero"/></clipPath></defs><rect x="-37.5" width="450" fill="#ffffff" y="-37.499999" height="449.999989" fill-opacity="1"/><rect x="-37.5" width="450" fill="#ffffff" y="-37.499999" height="449.999989" fill-opacity="1"/><g fill="#000000" fill-opacity="1"><g transform="translate(116.550488, 237.268945)"><g><path d="M 5.925781 0 L 4.503906 -7.886719 L 3.765625 -7.886719 L 3.765625 0 L 1.019531 0 L 1.019531 -18.699219 L 3.765625 -18.699219 C 7.046875 -18.699219 8.445312 -16.839844 8.445312 -13.304688 C 8.445312 -11.449219 7.960938 -9.769531 6.917969 -9.054688 L 8.675781 0 Z M 3.765625 -10.429688 C 4.148438 -10.429688 4.65625 -10.480469 5.0625 -10.835938 C 5.46875 -11.195312 5.800781 -11.878906 5.800781 -13.203125 C 5.800781 -14.527344 5.46875 -15.238281 5.0625 -15.59375 C 4.65625 -15.949219 4.148438 -15.976562 3.765625 -15.976562 Z M 3.765625 -10.429688 "/></g></g></g><g fill="#000000" fill-opacity="1"><g transform="translate(126.875566, 237.268945)"><g><path d="M 0.253906 0 L 3.078125 -18.699219 L 6.4375 -18.699219 L 9.261719 0 L 6.589844 0 L 6.082031 -3.816406 L 3.433594 -3.816406 L 2.925781 0 Z M 4.910156 -12.617188 L 4.832031 -13.101562 L 4.679688 -13.101562 L 4.605469 -12.617188 L 3.816406 -6.714844 L 5.699219 -6.714844 Z M 4.910156 -12.617188 "/></g></g></g><g fill="#000000" fill-opacity="1"><g transform="translate(137.53123, 237.268945)"><g><path d="M 1.019531 -18.699219 L 3.765625 -18.699219 C 4.960938 -18.699219 6.15625 -18.394531 7.074219 -17.527344 C 7.988281 -16.664062 8.597656 -15.238281 8.597656 -13.101562 C 8.597656 -10.964844 7.988281 -9.566406 7.074219 -8.699219 C 6.15625 -7.835938 4.960938 -7.480469 3.765625 -7.480469 L 3.765625 0 L 1.019531 0 Z M 3.765625 -10.277344 C 4.605469 -10.277344 5.140625 -10.429688 5.445312 -10.863281 C 5.75 -11.269531 5.824219 -11.957031 5.824219 -13 C 5.824219 -14.042969 5.75 -14.78125 5.445312 -15.238281 C 5.140625 -15.695312 4.605469 -15.898438 3.765625 -15.898438 Z M 3.765625 -10.277344 "/></g></g></g><g fill="#000000" fill-opacity="1"><g transform="translate(147.627449, 237.268945)"><g><path d="M 1.019531 -18.699219 L 3.765625 -18.699219 L 3.765625 0 L 1.019531 0 Z M 1.019531 -18.699219 "/></g></g></g><g fill="#000000" fill-opacity="1"><g transform="translate(153.553202, 237.268945)"><g><path d="M 1.019531 0 L 1.019531 -18.699219 L 3.179688 -18.699219 C 5.722656 -18.699219 7.097656 -18.191406 7.835938 -16.765625 C 8.546875 -15.339844 8.648438 -13 8.648438 -9.335938 C 8.648438 -5.671875 8.546875 -3.359375 7.835938 -1.933594 C 7.097656 -0.507812 5.722656 0 3.179688 0 Z M 3.765625 -2.746094 C 4.707031 -2.746094 5.242188 -2.847656 5.519531 -3.765625 C 5.648438 -4.199219 5.75 -4.859375 5.773438 -5.75 C 5.800781 -6.640625 5.800781 -7.835938 5.800781 -9.363281 C 5.800781 -10.886719 5.800781 -12.085938 5.773438 -12.972656 C 5.75 -13.839844 5.648438 -14.5 5.519531 -14.957031 C 5.242188 -15.847656 4.707031 -15.949219 3.765625 -15.949219 Z M 3.765625 -2.746094 "/></g></g></g><g fill="#000000" fill-opacity="1"><g transform="translate(164.158009, 237.268945)"><g/></g></g><g fill="#000000" fill-opacity="1"><g transform="translate(169.219147, 237.268945)"><g><path d="M 0.253906 0 L 3.078125 -18.699219 L 6.4375 -18.699219 L 9.261719 0 L 6.589844 0 L 6.082031 -3.816406 L 3.433594 -3.816406 L 2.925781 0 Z M 4.910156 -12.617188 L 4.832031 -13.101562 L 4.679688 -13.101562 L 4.605469 -12.617188 L 3.816406 -6.714844 L 5.699219 -6.714844 Z M 4.910156 -12.617188 "/></g></g></g><g fill="#000000" fill-opacity="1"><g transform="translate(179.874809, 237.268945)"><g><path d="M 1.019531 0 L 1.019531 -18.699219 L 3.179688 -18.699219 C 5.722656 -18.699219 7.097656 -18.191406 7.835938 -16.765625 C 8.546875 -15.339844 8.648438 -13 8.648438 -9.335938 C 8.648438 -5.671875 8.546875 -3.359375 7.835938 -1.933594 C 7.097656 -0.507812 5.722656 0 3.179688 0 Z M 3.765625 -2.746094 C 4.707031 -2.746094 5.242188 -2.847656 5.519531 -3.765625 C 5.648438 -4.199219 5.75 -4.859375 5.773438 -5.75 C 5.800781 -6.640625 5.800781 -7.835938 5.800781 -9.363281 C 5.800781 -10.886719 5.800781 -12.085938 5.773438 -12.972656 C 5.75 -13.839844 5.648438 -14.5 5.519531 -14.957031 C 5.242188 -15.847656 4.707031 -15.949219 3.765625 -15.949219 Z M 3.765625 -2.746094 "/></g></g></g><g fill="#000000" fill-opacity="1"><g transform="translate(190.479613, 237.268945)"><g><path d="M 6.003906 -18.699219 L 8.675781 -18.699219 L 5.824219 0 L 3.078125 0 L 0.230469 -18.699219 L 2.898438 -18.699219 L 4.273438 -8.421875 L 4.375 -7.632812 L 4.527344 -7.632812 L 4.628906 -8.421875 Z M 6.003906 -18.699219 "/></g></g></g><g fill="#000000" fill-opacity="1"><g transform="translate(200.524962, 237.268945)"><g><path d="M 1.019531 -18.699219 L 7.300781 -18.699219 L 7.300781 -15.875 L 3.765625 -15.875 L 3.765625 -10.964844 L 6.308594 -10.964844 L 6.308594 -7.960938 L 3.765625 -7.960938 L 3.765625 -2.824219 L 7.300781 -2.824219 L 7.300781 0 L 1.019531 0 Z M 1.019531 -18.699219 "/></g></g></g><g fill="#000000" fill-opacity="1"><g transform="translate(209.476839, 237.268945)"><g><path d="M 3.917969 -9.742188 L 3.6875 -10.609375 L 3.535156 -10.609375 L 3.535156 0 L 1.019531 0 L 1.019531 -18.699219 L 3.460938 -18.699219 L 6.132812 -8.953125 L 6.359375 -8.089844 L 6.511719 -8.089844 L 6.511719 -18.699219 L 9.03125 -18.699219 L 9.03125 0 L 6.589844 0 Z M 3.917969 -9.742188 "/></g></g></g><g fill="#000000" fill-opacity="1"><g transform="translate(220.666528, 237.268945)"><g><path d="M 0.0507812 -15.875 L 0.0507812 -18.699219 L 7.988281 -18.699219 L 7.988281 -15.875 L 5.394531 -15.875 L 5.394531 0 L 2.644531 0 L 2.644531 -15.875 Z M 0.0507812 -15.875 "/></g></g></g><g fill="#000000" fill-opacity="1"><g transform="translate(229.847275, 237.268945)"><g><path d="M 8.320312 -18.699219 L 8.320312 -3.839844 C 8.292969 -3.078125 8.140625 -2.390625 7.859375 -1.804688 C 7.632812 -1.296875 7.277344 -0.8125 6.765625 -0.433594 C 6.257812 -0.0273438 5.570312 0.203125 4.65625 0.203125 C 3.738281 0.203125 3.027344 -0.0273438 2.519531 -0.433594 C 2.007812 -0.8125 1.679688 -1.296875 1.449219 -1.804688 C 1.171875 -2.390625 1.019531 -3.078125 0.992188 -3.839844 L 0.992188 -18.699219 L 3.738281 -18.699219 L 3.738281 -3.839844 C 3.738281 -3.308594 3.867188 -2.949219 4.121094 -2.671875 C 4.25 -2.542969 4.425781 -2.46875 4.65625 -2.46875 C 5.140625 -2.46875 5.367188 -2.773438 5.46875 -3.15625 C 5.546875 -3.332031 5.570312 -3.5625 5.570312 -3.839844 L 5.570312 -18.699219 Z M 8.320312 -18.699219 "/></g></g></g><g fill="#000000" fill-opacity="1"><g transform="translate(240.299507, 237.268945)"><g><path d="M 5.925781 0 L 4.503906 -7.886719 L 3.765625 -7.886719 L 3.765625 0 L 1.019531 0 L 1.019531 -18.699219 L 3.765625 -18.699219 C 7.046875 -18.699219 8.445312 -16.839844 8.445312 -13.304688 C 8.445312 -11.449219 7.960938 -9.769531 6.917969 -9.054688 L 8.675781 0 Z M 3.765625 -10.429688 C 4.148438 -10.429688 4.65625 -10.480469 5.0625 -10.835938 C 5.46875 -11.195312 5.800781 -11.878906 5.800781 -13.203125 C 5.800781 -14.527344 5.46875 -15.238281 5.0625 -15.59375 C 4.65625 -15.949219 4.148438 -15.976562 3.765625 -15.976562 Z M 3.765625 -10.429688 "/></g></g></g><g fill="#000000" fill-opacity="1"><g transform="translate(250.624583, 237.268945)"><g><path d="M 1.019531 -18.699219 L 7.300781 -18.699219 L 7.300781 -15.875 L 3.765625 -15.875 L 3.765625 -10.964844 L 6.308594 -10.964844 L 6.308594 -7.960938 L 3.765625 -7.960938 L 3.765625 -2.824219 L 7.300781 -2.824219 L 7.300781 0 L 1.019531 0 Z M 1.019531 -18.699219 "/></g></g></g><g fill="#000000" fill-opacity="1"><g transform="translate(144.213349, 259.532004)"><g><path d="M 0.679688 -12.492188 L 4.878906 -12.492188 L 4.878906 -10.605469 L 2.515625 -10.605469 L 2.515625 -7.324219 L 4.214844 -7.324219 L 4.214844 -5.320312 L 2.515625 -5.320312 L 2.515625 -1.886719 L 4.878906 -1.886719 L 4.878906 0 L 0.679688 0 Z M 0.679688 -12.492188 "/></g></g></g><g fill="#000000" fill-opacity="1"><g transform="translate(152.370948, 259.532004)"><g><path d="M 1.9375 0 L 0.136719 0 L 2.160156 -6.558594 L 0.171875 -12.492188 L 1.972656 -12.492188 L 2.972656 -9.332031 L 3.023438 -9.175781 L 3.09375 -9.175781 L 3.144531 -9.332031 L 4.148438 -12.492188 L 5.949219 -12.492188 L 3.960938 -6.558594 L 5.980469 0 L 4.179688 0 L 3.128906 -3.722656 L 3.09375 -3.875 L 3.023438 -3.875 L 2.992188 -3.722656 Z M 1.9375 0 "/></g></g></g><g fill="#000000" fill-opacity="1"><g transform="translate(161.429128, 259.532004)"><g><path d="M 0.679688 -12.492188 L 2.515625 -12.492188 C 3.3125 -12.492188 4.113281 -12.289062 4.726562 -11.710938 C 5.335938 -11.132812 5.746094 -10.179688 5.746094 -8.753906 C 5.746094 -7.324219 5.335938 -6.390625 4.726562 -5.8125 C 4.113281 -5.234375 3.3125 -4.996094 2.515625 -4.996094 L 2.515625 0 L 0.679688 0 Z M 2.515625 -6.867188 C 3.074219 -6.867188 3.433594 -6.96875 3.636719 -7.257812 C 3.839844 -7.527344 3.890625 -7.988281 3.890625 -8.683594 C 3.890625 -9.382812 3.839844 -9.875 3.636719 -10.179688 C 3.433594 -10.484375 3.074219 -10.621094 2.515625 -10.621094 Z M 2.515625 -6.867188 "/></g></g></g><g fill="#000000" fill-opacity="1"><g transform="translate(170.351373, 259.532004)"><g><path d="M 0.679688 -12.492188 L 2.515625 -12.492188 L 2.515625 0 L 0.679688 0 Z M 0.679688 -12.492188 "/></g></g></g><g fill="#000000" fill-opacity="1"><g transform="translate(176.486905, 259.532004)"><g><path d="M 0.679688 0 L 0.679688 -12.492188 L 2.125 -12.492188 C 3.824219 -12.492188 4.742188 -12.152344 5.234375 -11.199219 C 5.710938 -10.246094 5.777344 -8.683594 5.777344 -6.238281 C 5.777344 -3.789062 5.710938 -2.242188 5.234375 -1.292969 C 4.742188 -0.339844 3.824219 0 2.125 0 Z M 2.515625 -1.835938 C 3.144531 -1.835938 3.5 -1.902344 3.6875 -2.515625 C 3.773438 -2.804688 3.839844 -3.246094 3.859375 -3.839844 C 3.875 -4.4375 3.875 -5.234375 3.875 -6.253906 C 3.875 -7.273438 3.875 -8.074219 3.859375 -8.667969 C 3.839844 -9.246094 3.773438 -9.6875 3.6875 -9.992188 C 3.5 -10.585938 3.144531 -10.65625 2.515625 -10.65625 Z M 2.515625 -1.835938 "/></g></g></g><g fill="#000000" fill-opacity="1"><g transform="translate(185.748986, 259.532004)"><g><path d="M 0.679688 -12.492188 L 2.515625 -12.492188 L 2.515625 0 L 0.679688 0 Z M 0.679688 -12.492188 "/></g></g></g><g fill="#000000" fill-opacity="1"><g transform="translate(191.884517, 259.532004)"><g><path d="M 0.0351562 -10.605469 L 0.0351562 -12.492188 L 5.335938 -12.492188 L 5.335938 -10.605469 L 3.601562 -10.605469 L 3.601562 0 L 1.765625 0 L 1.765625 -10.605469 Z M 0.0351562 -10.605469 "/></g></g></g><g fill="#000000" fill-opacity="1"><g transform="translate(200.195045, 259.532004)"><g><path d="M 0.679688 -12.492188 L 2.515625 -12.492188 L 2.515625 0 L 0.679688 0 Z M 0.679688 -12.492188 "/></g></g></g><g fill="#000000" fill-opacity="1"><g transform="translate(206.330577, 259.532004)"><g><path d="M 5.457031 -2.566406 C 5.4375 -2.054688 5.335938 -1.597656 5.148438 -1.207031 C 4.996094 -0.867188 4.757812 -0.542969 4.417969 -0.289062 C 4.078125 -0.015625 3.621094 0.136719 3.007812 0.136719 C 2.394531 0.136719 1.921875 -0.015625 1.582031 -0.289062 C 1.242188 -0.542969 1.019531 -0.867188 0.867188 -1.207031 C 0.679688 -1.597656 0.578125 -2.054688 0.5625 -2.566406 L 0.5625 -9.925781 C 0.578125 -10.417969 0.679688 -10.875 0.867188 -11.269531 C 1.019531 -11.609375 1.242188 -11.949219 1.582031 -12.203125 C 1.921875 -12.457031 2.394531 -12.628906 3.007812 -12.628906 C 3.621094 -12.628906 4.078125 -12.457031 4.417969 -12.203125 C 4.757812 -11.949219 4.996094 -11.609375 5.148438 -11.269531 C 5.335938 -10.875 5.4375 -10.417969 5.457031 -9.925781 Z M 3.621094 -9.925781 C 3.621094 -10.265625 3.550781 -10.503906 3.382812 -10.707031 C 3.296875 -10.792969 3.160156 -10.84375 3.007812 -10.84375 C 2.683594 -10.84375 2.53125 -10.605469 2.464844 -10.382812 C 2.414062 -10.246094 2.394531 -10.09375 2.394531 -9.925781 L 2.394531 -2.566406 C 2.394531 -2.210938 2.480469 -1.972656 2.652344 -1.785156 C 2.734375 -1.699219 2.855469 -1.648438 3.007812 -1.648438 C 3.332031 -1.648438 3.484375 -1.851562 3.550781 -2.105469 C 3.601562 -2.226562 3.621094 -2.378906 3.621094 -2.566406 Z M 3.621094 -9.925781 "/></g></g></g><g fill="#000000" fill-opacity="1"><g transform="translate(215.286802, 259.532004)"><g><path d="M 2.617188 -6.507812 L 2.464844 -7.085938 L 2.363281 -7.085938 L 2.363281 0 L 0.679688 0 L 0.679688 -12.492188 L 2.3125 -12.492188 L 4.097656 -5.980469 L 4.25 -5.40625 L 4.351562 -5.40625 L 4.351562 -12.492188 L 6.035156 -12.492188 L 6.035156 0 L 4.402344 0 Z M 2.617188 -6.507812 "/></g></g></g><g fill="#000000" fill-opacity="1"><g transform="translate(224.93971, 259.532004)"><g><path d="M 3.722656 -9.144531 C 3.722656 -9.550781 3.703125 -10.011719 3.585938 -10.367188 C 3.46875 -10.707031 3.28125 -10.945312 2.992188 -10.945312 C 2.515625 -10.929688 2.363281 -10.433594 2.363281 -9.703125 C 2.363281 -9.277344 2.550781 -8.835938 2.820312 -8.363281 C 3.09375 -7.886719 3.449219 -7.394531 3.808594 -6.867188 C 4.230469 -6.238281 4.65625 -5.589844 4.980469 -4.960938 C 5.300781 -4.332031 5.523438 -3.6875 5.523438 -3.007812 C 5.523438 -2.175781 5.386719 -1.394531 4.996094 -0.816406 C 4.605469 -0.238281 3.976562 0.136719 2.972656 0.136719 C 1.800781 0.136719 1.136719 -0.304688 0.765625 -0.984375 C 0.390625 -1.664062 0.304688 -2.566406 0.304688 -3.5 L 2.105469 -3.671875 C 2.105469 -3.144531 2.125 -2.617188 2.261719 -2.226562 C 2.378906 -1.820312 2.582031 -1.546875 2.972656 -1.546875 C 3.519531 -1.546875 3.722656 -2.125 3.722656 -2.921875 C 3.722656 -3.332031 3.519531 -3.808594 3.246094 -4.300781 C 3.09375 -4.539062 2.941406 -4.792969 2.769531 -5.046875 C 2.414062 -5.558594 2.023438 -6.136719 1.613281 -6.765625 C 1.207031 -7.394531 0.902344 -8.039062 0.714844 -8.703125 C 0.613281 -9.023438 0.5625 -9.363281 0.5625 -9.703125 C 0.5625 -10.382812 0.714844 -11.113281 1.105469 -11.675781 C 1.496094 -12.21875 2.089844 -12.609375 2.957031 -12.628906 C 4.0625 -12.644531 4.707031 -12.183594 5.066406 -11.523438 C 5.421875 -10.84375 5.523438 -10.011719 5.523438 -9.3125 Z M 3.722656 -9.144531 "/></g></g></g><g clip-path="url(#25d8da349b)"><path fill="#000000" d="M 169.859375 152.523438 C 168.613281 154.070312 166.320312 156.667969 165.175781 157.117188 C 166.96875 156.019531 171.703125 147.878906 173.101562 148.628906 C 173.5 148.878906 173.746094 148.976562 174.59375 148.628906 C 175.492188 149.125 175.691406 149.328125 177.085938 150.125 C 173.699219 148.976562 172.800781 149.125 172.5 149.425781 C 172.003906 149.875 171.355469 150.625 170.90625 151.324219 C 173 152.171875 172.800781 154.019531 171.054688 156.519531 C 172.550781 153.570312 170.90625 151.324219 169.859375 152.523438 Z M 181.273438 198.875 C 190.042969 197.972656 198.765625 197.972656 207.585938 198.875 C 209.53125 198.824219 243.871094 201.421875 224.183594 198.175781 C 197.96875 195.675781 209.082031 194.878906 229.367188 196.328125 C 237.089844 196.976562 238.785156 195.378906 230.3125 194.378906 C 188.25 190.78125 197.867188 191.28125 238.585938 193.378906 C 249.851562 193.378906 249.851562 192.480469 238.585938 190.582031 C 231.0625 189.933594 231.109375 189.582031 238.835938 189.484375 C 248.203125 189.683594 248.804688 188.835938 240.628906 186.9375 L 240.378906 184.988281 L 240.28125 184.988281 C 240.429688 184.738281 240.578125 184.4375 240.730469 184.089844 C 242.671875 179.144531 243.621094 174 243.570312 168.554688 C 243.820312 165.109375 240.878906 161.714844 237.9375 160.464844 C 230.414062 161.265625 221.542969 162.710938 203.550781 164.710938 L 176.191406 147.378906 L 176.4375 147.078125 L 194.878906 158.566406 C 193.632812 157.519531 192.6875 155.46875 191.339844 153.222656 C 191.640625 152.375 191.539062 151.972656 191.789062 151.023438 C 191.640625 149.675781 190.84375 148.527344 189.496094 147.628906 L 185.609375 147.429688 C 185.261719 147.777344 184.761719 148.027344 184.164062 148.226562 C 185.011719 147.679688 185.609375 146.578125 185.957031 145.03125 C 186.554688 145.480469 187.105469 144.832031 187.652344 142.984375 C 188.199219 142.085938 188.050781 141.585938 187.203125 141.484375 C 187.351562 139.636719 187.105469 137.738281 186.507812 135.941406 C 185.210938 133.144531 180.277344 131.996094 177.535156 132.992188 C 178.382812 133.042969 178.832031 133.242188 178.929688 133.542969 C 178.28125 133.542969 177.636719 133.742188 176.9375 134.09375 C 175.09375 135.390625 174.546875 137.789062 175.242188 141.234375 C 174.792969 141.183594 174.496094 141.285156 174.445312 141.585938 C 174.246094 142.882812 174.496094 143.734375 175.144531 144.183594 C 175.742188 144.03125 175.992188 144.382812 176.089844 145.132812 C 176.140625 145.03125 176.339844 145.03125 176.589844 145.082031 C 177.1875 145.53125 175.992188 146.53125 175.789062 146.929688 C 175.441406 147.726562 175.34375 147.878906 174.894531 147.679688 C 174.546875 147.476562 175.042969 146.777344 175.441406 145.980469 C 175.09375 145.878906 174.445312 146.128906 174.144531 147.429688 C 173.699219 147.527344 173.398438 147.328125 173.398438 146.828125 C 173.5 146.378906 173.898438 145.582031 174.347656 145.082031 C 174.046875 144.332031 173.148438 145.832031 172.652344 146.28125 C 172.203125 146.128906 172.152344 145.679688 172.550781 145.03125 C 172.949219 144.53125 172.949219 143.832031 172.5 143.433594 C 172.054688 142.984375 171.355469 142.933594 170.855469 143.382812 L 150.125 129.597656 L 145.488281 122.953125 C 142.75 118.609375 141.652344 117.660156 132.382812 111.867188 C 127.597656 110.417969 125.355469 112.617188 125.605469 118.558594 C 127.199219 121.105469 131.433594 124.703125 141.054688 130.097656 C 132.28125 125.800781 127.898438 122.753906 125.753906 120.507812 C 126.054688 122.703125 127.597656 123.703125 134.125 127.75 C 143.644531 133.644531 138.761719 130.746094 149.128906 132.496094 L 168.363281 144.980469 L 151.070312 131.695312 L 171.503906 146.480469 L 169.808594 145.628906 C 169.808594 145.78125 169.710938 145.929688 169.609375 146.128906 C 169.511719 146.378906 168.964844 147.027344 167.964844 148.027344 C 165.027344 150.277344 162.683594 152.472656 160.890625 154.621094 C 159.84375 157.617188 160.890625 158.964844 164.128906 158.617188 L 169.113281 156.96875 C 168.363281 157.71875 168.066406 159.714844 168.164062 163.011719 C 170.558594 162.164062 175.042969 161.664062 178.882812 161.863281 C 174.945312 162.363281 171.703125 162.613281 168.214844 163.859375 L 168.214844 164.011719 C 167.46875 164.261719 166.820312 164.761719 166.320312 165.460938 C 164.230469 165.910156 162.785156 166.859375 161.289062 169.207031 L 166.917969 169.355469 L 151.070312 171.003906 C 150.773438 171.304688 150.871094 172.152344 152.714844 171.902344 C 177.386719 169.90625 194.082031 168.554688 209.679688 165.910156 C 190.441406 169.65625 180.773438 171.503906 180.773438 171.503906 C 205.394531 167.808594 224.082031 164.558594 236.84375 161.8125 C 204.398438 169.65625 180.226562 173.402344 151.96875 175.546875 C 150.074219 175.648438 148.828125 175.398438 149.277344 173.402344 C 147.980469 175.75 147.632812 178.144531 147.980469 180.195312 C 140.507812 180.492188 140.65625 180.894531 148.429688 181.390625 C 153.414062 181.441406 153.414062 181.691406 148.429688 181.992188 C 144.492188 182.390625 144.542969 182.789062 148.578125 183.140625 L 153.265625 183.191406 C 159.742188 183.242188 159.792969 183.488281 153.464844 183.890625 C 148.378906 184.089844 148.332031 184.640625 153.464844 184.738281 C 157.75 184.988281 157.351562 185.4375 153.464844 185.386719 C 151.171875 185.539062 151.222656 185.9375 153.5625 186.085938 L 163.28125 186.285156 C 169.410156 186.785156 169.410156 187.035156 163.382812 187.035156 C 154.660156 187.585938 154.3125 188.984375 163.132812 189.285156 C 175.839844 190.183594 169.0625 191.332031 165.425781 190.980469 C 144.042969 191.230469 147.332031 192.628906 156.953125 193.328125 C 163.480469 194.027344 163.480469 194.429688 156.953125 194.628906 C 141.304688 195.128906 152.617188 196.777344 161.4375 197.175781 C 167.019531 197.824219 167.21875 198.324219 162.035156 198.675781 C 158.695312 198.972656 157.898438 199.125 159.644531 199.222656 C 154.160156 200.320312 159.246094 201.171875 176.140625 200.421875 C 183.367188 200.472656 182.71875 200.820312 174.246094 201.421875 C 159.792969 202.171875 159.742188 202.570312 173.996094 202.667969 C 178.132812 203.167969 176.488281 203.417969 169.113281 203.417969 C 162.933594 204.117188 167.070312 204.167969 181.570312 203.617188 C 191.738281 203.269531 194.132812 203.019531 188.75 202.96875 C 170.757812 202.917969 170.808594 201.71875 188.898438 200.820312 C 204.746094 200.074219 203.847656 197.875 183.464844 199.472656 C 179.378906 199.621094 177.683594 199.375 178.480469 198.921875 C 179.480469 198.921875 180.375 198.875 181.273438 198.875 Z M 199.015625 182.339844 L 235 174.398438 L 209.929688 183.289062 L 235.046875 183.941406 C 237.441406 183.988281 237.839844 184.390625 238.488281 181.992188 C 239.933594 176.496094 240.777344 172.101562 241.078125 168.804688 Z M 172.5 168.65625 C 171.855469 168.007812 170.90625 168.257812 169.609375 169.355469 C 170.707031 166.808594 172.253906 165.710938 174.195312 166.160156 C 175.789062 166.410156 177.1875 167.207031 178.183594 168.90625 L 171.503906 169.304688 C 171.855469 168.957031 172.203125 168.753906 172.5 168.65625 Z M 180.773438 157.269531 C 180.726562 158.015625 180.675781 158.867188 180.625 159.765625 C 180.875 158.265625 181.074219 157.316406 181.171875 156.867188 C 180.925781 156.867188 180.773438 156.867188 180.773438 156.867188 C 177.585938 156.917969 174.445312 157.71875 171.554688 159.066406 C 174.546875 158.015625 177.683594 157.417969 180.773438 157.269531 Z M 182.21875 159.867188 C 181.621094 160.066406 181.371094 159.964844 181.523438 159.617188 C 181.722656 158.566406 181.871094 157.765625 181.921875 157.167969 C 182.371094 157.117188 182.617188 157.167969 182.71875 157.367188 C 182.816406 157.71875 183.066406 157.816406 183.417969 157.71875 C 183.664062 157.566406 183.863281 157.617188 183.964844 157.816406 C 184.015625 158.765625 184.015625 159.464844 183.914062 159.964844 C 184.863281 160.363281 187.253906 161.414062 189.046875 162.960938 C 186.105469 161.265625 184.460938 160.566406 183.714844 160.414062 C 183.367188 160.414062 183.117188 160.316406 183.066406 160.113281 C 182.867188 159.765625 182.617188 159.664062 182.21875 159.867188 Z M 182.269531 150.226562 C 184.5625 151.824219 187.203125 153.171875 188.199219 153.671875 C 189.945312 154.421875 190.292969 152.273438 190.792969 151.175781 C 191.042969 150.574219 190.042969 149.277344 189.546875 148.925781 C 184.113281 147.578125 186.90625 149.726562 185.460938 150.175781 C 185.957031 150.226562 187.550781 150.523438 188.550781 150.925781 C 188.949219 151.074219 188.996094 151.523438 188.5 151.375 C 186.308594 150.773438 184.414062 150.375 182.269531 150.226562 Z M 188.5 158.816406 C 187.703125 158.316406 179.878906 152.824219 179.230469 152.824219 C 178.332031 152.824219 174.894531 154.121094 174.296875 154.121094 C 174.296875 154.019531 174.496094 153.320312 174.546875 153.273438 C 176.289062 152.574219 178.332031 152.523438 177.882812 151.824219 C 177.285156 150.824219 175.042969 149.675781 173.25 149.777344 C 172.5 149.875 172.300781 150.375 171.703125 151.222656 C 174.894531 152.324219 172.003906 156.917969 170.257812 158.464844 C 175.191406 156.667969 177.835938 155.96875 180.875 156.019531 C 183.316406 156.070312 185.460938 157.066406 188.5 158.816406 Z M 172.851562 147.976562 C 173.199219 147.277344 172.949219 147.128906 172.054688 147.429688 C 171.953125 147.777344 172.203125 147.976562 172.851562 147.976562 Z M 174.097656 148.527344 C 174.445312 147.828125 174.195312 147.679688 173.25 147.976562 C 173.199219 148.328125 173.5 148.476562 174.097656 148.527344 Z M 189.445312 163.160156 C 189.445312 162.164062 189.644531 161.914062 189.695312 160.8125 C 191.640625 162.164062 194.730469 164.210938 197.371094 165.507812 C 192.585938 165.910156 189.496094 165.757812 189.445312 163.160156 Z M 200.410156 165.007812 L 180.773438 152.273438 C 186.953125 155.96875 202.105469 165.109375 201.558594 165.007812 Z M 200.410156 165.007812 " fill-opacity="1" fill-rule="evenodd"/></g><path stroke-linecap="butt" transform="matrix(0.749064, 0, 0, 0.75, 117.67912, 253.532004)" fill="none" stroke-linejoin="miter" d="M 0.000757649 1.498995 L 25.042438 1.498995 " stroke="#000000" stroke-width="3" stroke-opacity="1" stroke-miterlimit="4"/><path stroke-linecap="butt" transform="matrix(0.749064, 0, 0, 0.75, 238.538734, 253.532004)" fill="none" stroke-linejoin="miter" d="M 0.000437966 1.498995 L 25.042118 1.498995 " stroke="#000000" stroke-width="3" stroke-opacity="1" stroke-miterlimit="4"/></svg>